<svg xmlns="http://www.w3.org/2000/svg" id="uuid-289a2550-7cf9-46db-b4ba-e6bf7a21145f" data-name="Layer 1" viewBox="0 0 765 215"><defs><style>.uuid-11f4aac1-3e40-493c-ba45-1b46ad9b7df6{fill:#525454}.uuid-90a80ff3-c8ab-4a06-af55-675f2c5d29da{fill:#f04a3e;fill-rule:evenodd}</style></defs><path d="M137.957 16.172h31.086a56.417 56.417 0 0 1 21.89 4.174 49.534 49.534 0 0 1 17.207 11.792 52.016 52.016 0 0 1 11 17.94 62.058 62.058 0 0 1 4.006 22.172 60.478 60.478 0 0 1-3.949 21.833 52.75 52.75 0 0 1-11.283 17.771 50.775 50.775 0 0 1-17.263 11.904 55.401 55.401 0 0 1-21.72 4.175h-30.974V16.172Zm21.777 92.805h3.555c12.862 0 22.228-3.216 28.208-9.704a38.533 38.533 0 0 0 9.083-27.023c0-24.598-12.393-36.897-37.179-36.897h-3.554l-.113 73.624ZM286.39 35.184v24.598h34.696v18.956h-34.697v30.239h35.994v18.956h-57.77V16.172h57.77v19.012H286.39ZM364.188 16.172h15.74l58.617 75.147V16.172h21.777v111.76H444.92l-58.843-75.88v75.88h-21.89V16.173ZM546.526 127.933H524.75V35.184h-22.566V16.172h66.853v19.012H546.47l.056 92.749ZM632.392 127.933h-21.777V16.172h21.777v111.76ZM718.653 128.666c-38.702 0-44.682-24.202-44.682-56.416s5.98-56.417 44.682-56.417h29.167v16.925H728.64c-27.419 0-32.722 8.858-32.722 39.492s5.303 39.491 32.722 39.491h19.181v16.925h-29.167ZM103.318 20.346c-6.297-5.81-16.113-5.416-21.923.881a15.515 15.515 0 0 0-2.45 17.511 9.422 9.422 0 0 1 0 9.083l-3.215 5.642a7.503 7.503 0 0 1-13.032 0L41.147 16.284H14.405l26.572 46.093a20.14 20.14 0 0 1 0 20.253l-26.12 45.134H41.71l21.777-37.687 22.284-38.589a9.478 9.478 0 0 1 7.898-4.457c8.556-.472 15.109-7.79 14.637-16.345a15.515 15.515 0 0 0-4.99-10.565v.225ZM99.48 35.748a7.785 7.785 0 1 1-2.877-10.663 7.842 7.842 0 0 1 2.877 10.663Z"/><path d="m532.888 155.013-13.331 34.268h4.263l3.53-9.62h13.429l3.477 9.62h4.261l-13.243-34.268h-2.386Zm6.126 20.54H528.98l5.047-12.63 4.988 12.63ZM655.39 165.165c-3.667 0-6.698 1.152-9.008 3.423-2.313 2.274-3.486 5.288-3.486 8.959 0 3.633 1.182 6.642 3.514 8.942 2.326 2.3 5.347 3.466 8.98 3.466 3.67 0 6.7-1.157 9.01-3.437 2.312-2.282 3.485-5.3 3.485-8.971 0-3.633-1.182-6.638-3.513-8.931-2.33-2.29-5.35-3.451-8.981-3.451Zm8.075 12.382c0 2.415-.748 4.41-2.224 5.93-1.471 1.516-3.44 2.284-5.85 2.284s-4.38-.768-5.851-2.284c-1.476-1.519-2.223-3.515-2.223-5.93 0-2.378.762-4.365 2.264-5.903 1.5-1.535 3.455-2.313 5.81-2.313 2.41 0 4.379.763 5.851 2.27 1.476 1.512 2.223 3.512 2.223 5.946ZM682.104 157.78c-1.8 0-2.79.962-2.79 2.706 0 1.726 1.01 2.676 2.846 2.676 1.78 0 2.761-.93 2.761-2.62 0-1.78-1-2.762-2.817-2.762ZM675.72 169.67h4.386v19.946h4.051v-23.999h-8.437v4.053zM706.794 165.165c-2.224 0-4.164.562-5.783 1.672v-1.39h-4.08v24.112h4.08v-14.003c0-1.882.514-3.405 1.528-4.527 1.015-1.124 2.407-1.671 4.255-1.671 3.624 0 5.386 2.095 5.386 6.406v13.795h4.08v-13.851c0-6.996-3.184-10.543-9.466-10.543ZM745.141 183.285l-.31.32c-1.282 1.318-2.795 1.96-4.625 1.96-1.832 0-3.346-.624-4.627-1.908-1.264-1.267-1.905-2.828-1.905-4.64v-9.178h5.263v-4.165h-5.263v-10.411h-4.138v10.41h-3.054v4.166h3.054v9.175c-.017 2.903 1.042 5.423 3.15 7.49 2.106 2.065 4.64 3.112 7.531 3.112 2.93 0 5.455-1.063 7.505-3.16l.307-.314-2.887-2.857ZM748.14 157.144a.366.366 0 0 0-.035-.161.284.284 0 0 0-.12-.12.494.494 0 0 0-.17-.055 1.758 1.758 0 0 0-.242-.013h-.208v.793h.16c.099 0 .192-.009.276-.025a.437.437 0 0 0 .2-.083.32.32 0 0 0 .105-.134.533.533 0 0 0 .034-.202m1.162 1.972h-.853l-.817-1.03h-.267v1.03h-.665v-2.806h1.023c.189 0 .341.007.457.023a.964.964 0 0 1 .342.117.732.732 0 0 1 .274.26c.056.1.084.228.084.382a.752.752 0 0 1-.168.509c-.112.13-.255.232-.432.306l1.021 1.21Zm.67-1.336c0-.606-.214-1.127-.643-1.561a2.103 2.103 0 0 0-1.554-.652c-.605 0-1.124.217-1.553.652-.43.434-.644.955-.644 1.56 0 .607.214 1.128.644 1.562.429.434.948.652 1.553.652.607 0 1.124-.218 1.554-.652.43-.434.643-.955.643-1.561m.623 0c0 .777-.276 1.442-.827 1.993-.55.551-1.215.827-1.993.827a2.717 2.717 0 0 1-1.993-.827 2.72 2.72 0 0 1-.826-1.993c0-.778.276-1.443.826-1.993a2.718 2.718 0 0 1 1.993-.826c.778 0 1.443.275 1.993.826.551.55.827 1.215.827 1.993M574.819 165.105h-4.431l-7.244 16.282-.271.001-7.177-16.283h-4.459l10.587 24.023h2.351l10.644-24.023zM594.513 189.48c-.194 0-.364-.003-.508-.005-1.144-.02-4.186-.075-7.092-2.117-2.283-1.603-3.33-3.598-3.724-4.349a12.997 12.997 0 0 1-1.488-5.956c-.019-4.088 1.596-6.772 2.954-8.304 3.031-3.42 7.097-3.945 8.703-4.011.278-.013.464-.013.617-.013 4.038 0 6.68 1.609 8.191 2.962 3.972 3.558 3.908 8.309 3.903 8.51l-.046 1.99h-20.164a8.973 8.973 0 0 0 .939 2.927c.294.56.983 1.872 2.458 2.908 1.885 1.325 3.87 1.36 4.823 1.377 1.03.026 3.157.057 5.135-1.364a7.27 7.27 0 0 0 2.003-2.197l3.5 2.093a11.332 11.332 0 0 1-3.125 3.415c-2.722 1.955-5.597 2.135-7.08 2.135h.001Zm-8.314-15.37h15.438a7.67 7.67 0 0 0-2.19-3.387c-1.435-1.285-3.275-1.867-5.507-1.921-.101 0-.237.001-.41.008-1.09.046-3.83.393-5.824 2.642a7.36 7.36 0 0 0-1.507 2.658ZM620.991 189.128h-4.076v-34.2h10.92c5.719 0 10.371 4.653 10.371 10.371 0 2.792-1.093 5.411-3.078 7.374a10.381 10.381 0 0 1-7.407 2.997l-6.73-.075v13.533Zm0-17.61 6.775.075c1.687.039 3.29-.626 4.495-1.819a6.249 6.249 0 0 0 1.869-4.475 6.301 6.301 0 0 0-6.294-6.294h-6.845v12.513Z" class="uuid-11f4aac1-3e40-493c-ba45-1b46ad9b7df6"/><path d="M474.075 179.95c0-5.991 5.182-10.774 11.312-10.103 4.549.498 8.305 4.145 8.92 8.68a10.171 10.171 0 0 1-5.086 10.286c-.155.087-.101.315.076.315h19.365l-24.12-47.13a.257.257 0 0 0-.457 0l-24.121 47.13h19.222c.177 0 .23-.226.076-.313a10.162 10.162 0 0 1-5.187-8.866M506.648 149.832a7.115 7.115 0 0 1-7.115 7.115 7.118 7.118 0 0 1-7.118-7.115 7.116 7.116 0 1 1 14.233 0" class="uuid-90a80ff3-c8ab-4a06-af55-675f2c5d29da"/><path d="M219.35 165.69c2.779 0 5 .985 6.666 2.954 1.665 1.97 2.497 4.91 2.497 8.82 0 2.598-.384 4.778-1.15 6.54-.767 1.762-1.844 3.096-3.234 4-1.388.906-3.015 1.358-4.882 1.358-1.175 0-2.203-.155-3.088-.466-.884-.31-1.64-.725-2.27-1.244a8.985 8.985 0 0 1-1.586-1.669h-.269c.055.54.115 1.165.177 1.876.062.712.092 1.351.092 1.917v9.329h-4.186v-33h3.42l.56 3.275h.206a8.74 8.74 0 0 1 1.586-1.855c.63-.56 1.392-1.005 2.29-1.337s1.955-.497 3.172-.497Zm-.952 3.442c-1.465 0-2.637.286-3.515.86-.877.573-1.52 1.427-1.926 2.56-.409 1.133-.626 2.557-.654 4.27v.663c0 1.824.194 3.361.58 4.612.388 1.25 1.03 2.204 1.929 2.86.898.657 2.107.985 3.627.985 1.3 0 2.38-.352 3.243-1.057.865-.705 1.507-1.7 1.929-2.985.422-1.285.633-2.778.633-4.478 0-2.584-.477-4.611-1.432-6.083-.953-1.472-2.423-2.207-4.414-2.207ZM254.703 177.485c0 1.88-.246 3.554-.736 5.026-.491 1.472-1.202 2.716-2.136 3.731a9.192 9.192 0 0 1-3.367 2.322c-1.313.532-2.799.798-4.456.798-1.548 0-2.968-.266-4.26-.798s-2.41-1.306-3.349-2.322c-.94-1.015-1.665-2.259-2.175-3.73-.513-1.473-.767-3.148-.767-5.027 0-2.5.428-4.633 1.285-6.394.857-1.762 2.083-3.102 3.68-4.022 1.595-.919 3.499-1.378 5.71-1.378 2.1 0 3.944.462 5.533 1.388 1.59.927 2.827 2.267 3.71 4.022.886 1.755 1.328 3.883 1.328 6.384Zm-16.976 0c0 1.755.224 3.264.674 4.53.448 1.264 1.14 2.235 2.072 2.912s2.137 1.015 3.618 1.015c1.45 0 2.646-.338 3.586-1.015s1.629-1.648 2.071-2.913c.443-1.265.665-2.774.665-4.53 0-1.74-.222-3.232-.665-4.476s-1.13-2.197-2.062-2.861c-.932-.663-2.145-.994-3.637-.994-2.184 0-3.783.728-4.798 2.186-1.016 1.458-1.524 3.507-1.524 6.146ZM279.524 188.906l-3.482-11.94a179.246 179.246 0 0 1-.994-3.73c-.166-.65-.315-1.255-.447-1.814a43.35 43.35 0 0 1-.3-1.358h-.165c-.07.346-.166.799-.29 1.358s-.268 1.168-.426 1.824-.324 1.317-.497 1.98a43.683 43.683 0 0 1-.508 1.803l-3.649 11.877h-4.6l-6.344-22.821h4.25l3.13 11.96c.206.801.408 1.63.6 2.487.194.857.36 1.666.5 2.426.137.76.24 1.408.31 1.948h.166c.067-.36.154-.805.258-1.337s.218-1.092.342-1.68c.125-.587.258-1.157.403-1.71.147-.552.281-1.036.405-1.45l3.856-12.644h4.52l3.71 12.623c.179.608.365 1.289.56 2.041.191.754.365 1.497.517 2.23s.256 1.36.31 1.886h.167c.054-.47.158-1.079.31-1.825.153-.746.324-1.558.518-2.436.194-.877.401-1.73.622-2.56l3.171-11.96h4.189l-6.385 22.822h-4.727ZM304.036 165.69c1.99 0 3.695.426 5.12 1.275 1.423.85 2.514 2.05 3.274 3.596.76 1.548 1.14 3.372 1.14 5.473v2.363h-15.504c.041 2.446.67 4.321 1.885 5.628 1.217 1.306 2.923 1.958 5.121 1.958 1.45 0 2.742-.137 3.876-.414a20.917 20.917 0 0 0 3.524-1.223v3.503a16.337 16.337 0 0 1-3.45 1.15c-1.155.242-2.534.363-4.136.363-2.211 0-4.15-.442-5.814-1.327-1.667-.883-2.961-2.193-3.888-3.928-.926-1.733-1.388-3.872-1.388-6.414 0-2.516.42-4.668 1.264-6.457.842-1.79 2.032-3.162 3.565-4.116 1.533-.953 3.338-1.43 5.411-1.43Zm-.02 3.235c-1.688 0-3.042.549-4.065 1.647-1.022 1.099-1.623 2.671-1.802 4.716h11.234c-.013-1.257-.215-2.363-.6-3.317-.389-.953-.972-1.7-1.752-2.238-.782-.539-1.786-.808-3.015-.808ZM330.64 165.69c.415 0 .865.024 1.35.073.481.048.896.108 1.242.177l-.435 3.876c-.331-.083-.716-.152-1.15-.208s-.84-.083-1.213-.083c-.886 0-1.728.166-2.53.498-.8.331-1.505.811-2.113 1.44-.608.63-1.085 1.396-1.431 2.301-.345.906-.518 1.938-.518 3.1v12.084h-4.187v-22.843h3.358l.497 4.125h.187c.47-.829 1.04-1.589 1.71-2.28a7.764 7.764 0 0 1 2.322-1.648c.878-.408 1.848-.611 2.912-.611ZM346.86 165.69c1.99 0 3.695.426 5.12 1.275 1.423.85 2.514 2.05 3.274 3.596.76 1.548 1.14 3.372 1.14 5.473v2.363H340.89c.041 2.446.67 4.321 1.885 5.628 1.217 1.306 2.923 1.958 5.121 1.958 1.45 0 2.742-.137 3.876-.414a20.917 20.917 0 0 0 3.524-1.223v3.503a16.337 16.337 0 0 1-3.45 1.15c-1.155.242-2.534.363-4.136.363-2.211 0-4.15-.442-5.814-1.327-1.667-.883-2.961-2.193-3.888-3.928-.926-1.733-1.388-3.872-1.388-6.414 0-2.516.42-4.668 1.264-6.457.842-1.79 2.032-3.162 3.565-4.116 1.533-.953 3.338-1.43 5.411-1.43Zm-.02 3.235c-1.688 0-3.042.549-4.065 1.647-1.022 1.099-1.623 2.671-1.802 4.716h11.234c-.013-1.257-.215-2.363-.6-3.317-.389-.953-.972-1.7-1.752-2.238-.782-.539-1.786-.808-3.015-.808ZM370.374 189.362c-2.791 0-5.02-.988-6.684-2.963-1.665-1.977-2.497-4.907-2.497-8.79 0-3.924.845-6.891 2.538-8.903 1.694-2.01 3.942-3.015 6.747-3.015 1.175 0 2.205.16 3.088.476.886.319 1.648.74 2.29 1.265a7.617 7.617 0 0 1 1.607 1.783h.249a28.635 28.635 0 0 1-.207-1.804 23.729 23.729 0 0 1-.104-2.032v-8.684h4.166v32.253h-3.294l-.686-3.172h-.186a7.75 7.75 0 0 1-1.586 1.814c-.642.546-1.409.978-2.3 1.296-.892.317-1.937.476-3.14.476Zm.976-3.4c2.25 0 3.844-.648 4.776-1.948.934-1.298 1.407-3.226 1.42-5.783v-.643c0-2.721-.445-4.812-1.337-6.27-.891-1.457-2.526-2.186-4.9-2.186-1.937 0-3.395.756-4.376 2.27-.981 1.513-1.47 3.61-1.47 6.29 0 2.653.489 4.695 1.47 6.125.981 1.43 2.454 2.146 4.417 2.146ZM404.721 156.695v7.918c0 .912-.024 1.803-.072 2.674a68.24 68.24 0 0 1-.135 2.01h.207c.622-.995 1.503-1.841 2.642-2.54 1.142-.697 2.609-1.045 4.406-1.045 2.778 0 5.002.991 6.674 2.974 1.673 1.983 2.509 4.923 2.509 8.82 0 2.57-.384 4.74-1.15 6.508-.767 1.77-1.845 3.103-3.235 4-1.388.9-3.022 1.348-4.902 1.348-1.782 0-3.226-.329-4.332-.984-1.105-.656-1.97-1.44-2.591-2.353h-.311l-.787 2.923h-3.089v-32.253h4.166Zm6.115 12.437c-1.506 0-2.704.296-3.597.89-.89.595-1.53 1.493-1.917 2.696-.386 1.201-.588 2.715-.601 4.539v.31c0 2.71.443 4.782 1.328 6.22.883 1.436 2.486 2.155 4.808 2.155 1.908 0 3.354-.732 4.343-2.197.987-1.464 1.482-3.558 1.482-6.281 0-2.763-.491-4.843-1.473-6.239-.98-1.395-2.438-2.093-4.373-2.093ZM423.677 166.105h4.498l4.851 13.162c.249.678.48 1.337.693 1.98.215.643.401 1.264.561 1.866.159.6.287 1.191.383 1.772h.145c.165-.705.4-1.561.704-2.57.305-1.01.637-2.032.996-3.069l4.643-13.14h4.477l-9.867 26.075c-.539 1.452-1.19 2.698-1.959 3.742-.767 1.043-1.674 1.844-2.725 2.404-1.051.56-2.294.84-3.731.84a11.98 11.98 0 0 1-1.752-.114 12.11 12.11 0 0 1-1.295-.26v-3.316c.303.069.674.131 1.109.187.435.054.887.083 1.358.083.87 0 1.62-.17 2.248-.508a4.801 4.801 0 0 0 1.618-1.44 8.984 8.984 0 0 0 1.128-2.177l1.038-2.695-9.121-22.822Z" class="uuid-11f4aac1-3e40-493c-ba45-1b46ad9b7df6"/></svg>